<mxfile host="drawio-plugin" modified="2025-03-12T11:05:21.153Z" agent="Mozilla/5.0 (Windows NT 10.0; Win64; x64) AppleWebKit/537.36 (KHTML, like Gecko) Chrome/122.0.0.0 Safari/537.36" version="22.1.22" etag="jlFJofMfF7DB2sID5cEX" type="embed">
  <diagram id="F_WxJqyK1C6QrTPbM4rH" name="Page-1">
    <mxGraphModel dx="1258" dy="2075" grid="1" gridSize="10" guides="1" tooltips="1" connect="1" arrows="1" fold="1" page="1" pageScale="1" pageWidth="850" pageHeight="1100" math="0" shadow="0">
      <root>
        <mxCell id="0" />
        <mxCell id="1" parent="0" />
        <mxCell id="2" value="&lt;b style=&quot;border-color: var(--border-color); font-size: 14px;&quot;&gt;Web application&lt;/b&gt;&lt;div style=&quot;border-color: var(--border-color); font-size: 14px;&quot;&gt;&lt;font style=&quot;border-color: var(--border-color); font-size: 14px;&quot;&gt;[ Container: NodeJS]&lt;/font&gt;&lt;/div&gt;&lt;div style=&quot;border-color: var(--border-color); font-size: 14px;&quot;&gt;&lt;font style=&quot;border-color: var(--border-color); font-size: 14px;&quot;&gt;&lt;br style=&quot;border-color: var(--border-color); font-size: 14px;&quot;&gt;&lt;/font&gt;&lt;/div&gt;&lt;div style=&quot;border-color: var(--border-color); font-size: 14px;&quot;&gt;&lt;i style=&quot;border-color: var(--border-color); font-size: 14px;&quot;&gt;Allow users to view their&amp;nbsp; file system and/or search for certain content.&lt;/i&gt;&lt;/div&gt;" style="rounded=1;whiteSpace=wrap;html=1;fillColor=#cce5ff;strokeColor=#36393d;fontSize=14;" vertex="1" parent="1">
          <mxGeometry x="390" y="-590" width="220" height="120" as="geometry" />
        </mxCell>
        <mxCell id="5" value="&lt;span style=&quot;font-size: 14px; background-color: initial;&quot;&gt;&lt;b style=&quot;font-size: 14px;&quot;&gt;Search Query Builder&lt;br style=&quot;font-size: 14px;&quot;&gt;&lt;/b&gt;[Component]&lt;br style=&quot;font-size: 14px;&quot;&gt;&lt;br style=&quot;font-size: 14px;&quot;&gt;Builds the search query based on&lt;br style=&quot;font-size: 14px;&quot;&gt;the input from the user and from the configuration file.&lt;br style=&quot;font-size: 14px;&quot;&gt;&lt;/span&gt;" style="rounded=1;whiteSpace=wrap;html=1;fillColor=#eeeeee;strokeColor=#36393d;fontSize=14;" vertex="1" parent="1">
          <mxGeometry x="640" y="-20" width="220" height="120" as="geometry" />
        </mxCell>
        <mxCell id="6" value="&lt;span style=&quot;font-size: 14px; background-color: initial;&quot;&gt;&lt;b style=&quot;font-size: 14px;&quot;&gt;Logger&lt;br style=&quot;font-size: 14px;&quot;&gt;&lt;/b&gt;[Zap Logger]&lt;br style=&quot;font-size: 14px;&quot;&gt;&lt;br style=&quot;font-size: 14px;&quot;&gt;Logs any events, pass them&amp;nbsp;&lt;br style=&quot;font-size: 14px;&quot;&gt;in the database.&lt;br style=&quot;font-size: 14px;&quot;&gt;&lt;/span&gt;" style="rounded=1;whiteSpace=wrap;html=1;fillColor=#eeeeee;strokeColor=#36393d;fontSize=14;" vertex="1" parent="1">
          <mxGeometry x="670" y="-360" width="220" height="120" as="geometry" />
        </mxCell>
        <mxCell id="7" value="" style="verticalLabelPosition=bottom;verticalAlign=top;html=1;shape=mxgraph.basic.8_point_star;fillColor=#e1d5e7;strokeColor=#9673a6;" vertex="1" parent="1">
          <mxGeometry x="860" y="-270" width="20" height="20" as="geometry" />
        </mxCell>
        <mxCell id="10" value="&lt;span style=&quot;font-size: 14px; background-color: initial;&quot;&gt;&lt;b style=&quot;font-size: 14px;&quot;&gt;Config Changer&lt;br style=&quot;font-size: 14px;&quot;&gt;&lt;/b&gt;[Component]&lt;br style=&quot;font-size: 14px;&quot;&gt;&lt;br style=&quot;font-size: 14px;&quot;&gt;Updates the configuration of the system.&lt;br style=&quot;font-size: 14px;&quot;&gt;&lt;/span&gt;" style="rounded=1;whiteSpace=wrap;html=1;fillColor=#eeeeee;strokeColor=#36393d;fontSize=14;" vertex="1" parent="1">
          <mxGeometry x="130" y="-20" width="220" height="120" as="geometry" />
        </mxCell>
        <mxCell id="21" value="" style="endArrow=none;dashed=1;html=1;rounded=0;strokeWidth=3;" edge="1" parent="1">
          <mxGeometry width="50" height="50" relative="1" as="geometry">
            <mxPoint x="90" y="-420" as="sourcePoint" />
            <mxPoint x="90" y="180" as="targetPoint" />
          </mxGeometry>
        </mxCell>
        <mxCell id="22" value="" style="endArrow=none;dashed=1;html=1;rounded=0;strokeWidth=3;" edge="1" parent="1">
          <mxGeometry width="50" height="50" relative="1" as="geometry">
            <mxPoint x="90" y="180" as="sourcePoint" />
            <mxPoint x="930" y="180" as="targetPoint" />
          </mxGeometry>
        </mxCell>
        <mxCell id="23" value="" style="endArrow=none;dashed=1;html=1;rounded=0;strokeWidth=3;" edge="1" parent="1">
          <mxGeometry width="50" height="50" relative="1" as="geometry">
            <mxPoint x="940" y="180" as="sourcePoint" />
            <mxPoint x="940" y="-420" as="targetPoint" />
          </mxGeometry>
        </mxCell>
        <mxCell id="24" value="" style="endArrow=none;dashed=1;html=1;rounded=0;strokeWidth=3;" edge="1" parent="1">
          <mxGeometry width="50" height="50" relative="1" as="geometry">
            <mxPoint x="90" y="-420" as="sourcePoint" />
            <mxPoint x="940" y="-420" as="targetPoint" />
          </mxGeometry>
        </mxCell>
        <mxCell id="25" value="&lt;font style=&quot;font-size: 20px;&quot;&gt;Backend&lt;/font&gt;" style="text;html=1;strokeColor=none;fillColor=none;align=center;verticalAlign=middle;whiteSpace=wrap;rounded=0;fontSize=20;" vertex="1" parent="1">
          <mxGeometry x="90" y="-400" width="220" height="30" as="geometry" />
        </mxCell>
        <mxCell id="27" value="&lt;font style=&quot;font-size: 14px;&quot;&gt;&lt;b style=&quot;font-size: 14px;&quot;&gt;Relational Database&lt;/b&gt;&lt;br style=&quot;font-size: 14px;&quot;&gt;&lt;/font&gt;&lt;div style=&quot;font-size: 14px;&quot;&gt;[ Container: PostgreSQL]&lt;/div&gt;&lt;div style=&quot;font-size: 14px;&quot;&gt;&lt;br style=&quot;font-size: 14px;&quot;&gt;&lt;/div&gt;&lt;div style=&quot;font-size: 14px;&quot;&gt;&lt;i style=&quot;font-size: 14px;&quot;&gt;Stores files metadata and word&lt;/i&gt;&lt;/div&gt;&lt;div style=&quot;font-size: 14px;&quot;&gt;&lt;i style=&quot;font-size: 14px;&quot;&gt;mapping to each file.&lt;/i&gt;&lt;/div&gt;" style="rounded=1;whiteSpace=wrap;html=1;fillColor=#cce5ff;strokeColor=#36393d;fontSize=14;" vertex="1" parent="1">
          <mxGeometry x="640" y="210" width="220" height="120" as="geometry" />
        </mxCell>
        <mxCell id="29" value="&lt;span style=&quot;font-size: 14px; background-color: initial;&quot;&gt;&lt;b style=&quot;font-size: 14px;&quot;&gt;Configuration File&lt;br style=&quot;font-size: 14px;&quot;&gt;&lt;/b&gt;[Container: config.json]&lt;/span&gt;&lt;br style=&quot;font-size: 14px;&quot;&gt;&lt;div style=&quot;font-size: 14px;&quot;&gt;&lt;br style=&quot;font-size: 14px;&quot;&gt;&lt;/div&gt;&lt;div style=&quot;font-size: 14px;&quot;&gt;&lt;i style=&quot;font-size: 14px;&quot;&gt;Stores the system configuration&lt;br style=&quot;font-size: 14px;&quot;&gt;&lt;/i&gt;&lt;/div&gt;&lt;div style=&quot;font-size: 14px;&quot;&gt;&lt;i style=&quot;font-size: 14px;&quot;&gt;in a config.json file.&lt;/i&gt;&lt;/div&gt;" style="rounded=1;whiteSpace=wrap;html=1;fillColor=#cce5ff;strokeColor=#36393d;fontSize=14;" vertex="1" parent="1">
          <mxGeometry x="130" y="210" width="220" height="120" as="geometry" />
        </mxCell>
        <mxCell id="30" value="" style="endArrow=classic;html=1;rounded=0;entryX=0.5;entryY=0;entryDx=0;entryDy=0;" edge="1" parent="1" target="29">
          <mxGeometry width="50" height="50" relative="1" as="geometry">
            <mxPoint x="240" y="100" as="sourcePoint" />
            <mxPoint x="510" y="-10" as="targetPoint" />
          </mxGeometry>
        </mxCell>
        <mxCell id="31" value="&lt;font style=&quot;font-size: 14px;&quot;&gt;Updates the configuration&lt;br&gt;file.&lt;/font&gt;" style="edgeLabel;html=1;align=center;verticalAlign=middle;resizable=0;points=[];labelBackgroundColor=none;" vertex="1" connectable="0" parent="30">
          <mxGeometry y="-5" relative="1" as="geometry">
            <mxPoint x="5" y="-15" as="offset" />
          </mxGeometry>
        </mxCell>
        <mxCell id="38" value="" style="endArrow=classic;html=1;rounded=0;exitX=0.5;exitY=1;exitDx=0;exitDy=0;entryX=0.5;entryY=0;entryDx=0;entryDy=0;" edge="1" parent="1" source="5" target="29">
          <mxGeometry width="50" height="50" relative="1" as="geometry">
            <mxPoint x="590" y="-20" as="sourcePoint" />
            <mxPoint x="640" y="-70" as="targetPoint" />
          </mxGeometry>
        </mxCell>
        <mxCell id="39" value="Reads the configuration." style="edgeLabel;html=1;align=center;verticalAlign=middle;resizable=0;points=[];labelBackgroundColor=none;fontSize=14;fontColor=default;" vertex="1" connectable="0" parent="38">
          <mxGeometry x="0.0021" y="-3" relative="1" as="geometry">
            <mxPoint x="16" y="-2" as="offset" />
          </mxGeometry>
        </mxCell>
        <mxCell id="40" value="" style="endArrow=classic;html=1;rounded=0;exitX=0.5;exitY=1;exitDx=0;exitDy=0;entryX=0.5;entryY=0;entryDx=0;entryDy=0;" edge="1" parent="1" source="5" target="27">
          <mxGeometry width="50" height="50" relative="1" as="geometry">
            <mxPoint x="500" y="-70" as="sourcePoint" />
            <mxPoint x="550" y="-120" as="targetPoint" />
          </mxGeometry>
        </mxCell>
        <mxCell id="41" value="Reads the search query results." style="edgeLabel;html=1;align=center;verticalAlign=middle;resizable=0;points=[];labelBackgroundColor=none;fontSize=14;fontColor=#000000;" vertex="1" connectable="0" parent="40">
          <mxGeometry x="-0.1958" y="-7" relative="1" as="geometry">
            <mxPoint x="17" as="offset" />
          </mxGeometry>
        </mxCell>
        <mxCell id="43" value="&lt;span style=&quot;font-size: 14px; background-color: initial;&quot;&gt;&lt;b style=&quot;font-size: 14px;&quot;&gt;Handler&lt;br style=&quot;font-size: 14px;&quot;&gt;&lt;/b&gt;[Component]&lt;br style=&quot;font-size: 14px;&quot;&gt;&lt;br style=&quot;font-size: 14px;&quot;&gt;Handles the requests coming from&amp;nbsp;&lt;br style=&quot;font-size: 14px;&quot;&gt;the web app and redirects them to&lt;br style=&quot;font-size: 14px;&quot;&gt;the specific components.&lt;br style=&quot;font-size: 14px;&quot;&gt;&lt;/span&gt;" style="rounded=1;whiteSpace=wrap;html=1;fillColor=#eeeeee;strokeColor=#36393d;fontSize=14;" vertex="1" parent="1">
          <mxGeometry x="390" y="-310" width="220" height="120" as="geometry" />
        </mxCell>
        <mxCell id="44" value="" style="endArrow=classic;html=1;rounded=0;exitX=0.5;exitY=1;exitDx=0;exitDy=0;entryX=0.5;entryY=0;entryDx=0;entryDy=0;" edge="1" parent="1" source="43" target="10">
          <mxGeometry width="50" height="50" relative="1" as="geometry">
            <mxPoint x="500" y="-110" as="sourcePoint" />
            <mxPoint x="550" y="-160" as="targetPoint" />
          </mxGeometry>
        </mxCell>
        <mxCell id="45" value="Updates the configuration based&lt;br style=&quot;font-size: 14px;&quot;&gt;on the user&#39;s input" style="edgeLabel;html=1;align=center;verticalAlign=middle;resizable=0;points=[];labelBackgroundColor=none;fontSize=14;" vertex="1" connectable="0" parent="44">
          <mxGeometry x="0.0058" y="3" relative="1" as="geometry">
            <mxPoint as="offset" />
          </mxGeometry>
        </mxCell>
        <mxCell id="46" value="" style="endArrow=classic;html=1;rounded=0;exitX=0.5;exitY=1;exitDx=0;exitDy=0;entryX=0.5;entryY=0;entryDx=0;entryDy=0;" edge="1" parent="1" source="43" target="5">
          <mxGeometry width="50" height="50" relative="1" as="geometry">
            <mxPoint x="500" y="-110" as="sourcePoint" />
            <mxPoint x="550" y="-160" as="targetPoint" />
          </mxGeometry>
        </mxCell>
        <mxCell id="47" value="Gets the result s from the search query." style="edgeLabel;html=1;align=center;verticalAlign=middle;resizable=0;points=[];labelBackgroundColor=none;fontSize=15;" vertex="1" connectable="0" parent="46">
          <mxGeometry x="-0.0333" y="2" relative="1" as="geometry">
            <mxPoint as="offset" />
          </mxGeometry>
        </mxCell>
        <mxCell id="48" value="" style="endArrow=classic;html=1;rounded=0;exitX=0.5;exitY=1;exitDx=0;exitDy=0;entryX=0.5;entryY=0;entryDx=0;entryDy=0;" edge="1" parent="1" source="2" target="43">
          <mxGeometry width="50" height="50" relative="1" as="geometry">
            <mxPoint x="500" y="-300" as="sourcePoint" />
            <mxPoint x="550" y="-350" as="targetPoint" />
          </mxGeometry>
        </mxCell>
        <mxCell id="49" value="Gets responses based on&lt;br style=&quot;font-size: 14px;&quot;&gt;called endpoints." style="edgeLabel;html=1;align=center;verticalAlign=middle;resizable=0;points=[];labelBackgroundColor=none;fontSize=14;" vertex="1" connectable="0" parent="48">
          <mxGeometry x="-0.0644" y="-2" relative="1" as="geometry">
            <mxPoint y="-1" as="offset" />
          </mxGeometry>
        </mxCell>
      </root>
    </mxGraphModel>
  </diagram>
</mxfile>
